# xmcd
#
# Track frame offsets:
#	225
#	19093
#	37197
#	47056
#	68737
#	86693
#	99366
#	117016
#	135711
#	159761
#	173508
#	191564
#	209493
#
# Disc length: 3047 seconds
#
# Revision: 0
# Processed by: cddbd v1.5.2PL0 Copyright (c) Steve Scherf et al.
# Submitted via: EZCDAudioConverter 1.3.4.1
#
DISCID=a70be40d
DTITLE=Hagoka Band - Byłyście ze mną
DYEAR=1996
DGENRE=Country
TTITLE0=Byłyście ze mna
TTITLE1=Może to już dzis
TTITLE2=Te opolskie dziouchy
TTITLE3=Wojownik
TTITLE4=Jesteś kobietą
TTITLE5=Pieskie życie
TTITLE6=Zatańcz ze mną
TTITLE7=Przeznaczenie
TTITLE8=Nie dajmy się
TTITLE9=Taniec
TTITLE10=Może to już dziś
TTITLE11=Jesteś kobietą
TTITLE12=Gwiazdka
EXTD=
EXTT0=
EXTT1=
EXTT2=
EXTT3=
EXTT4=
EXTT5=
EXTT6=
EXTT7=
EXTT8=
EXTT9=
EXTT10=
EXTT11=
EXTT12=
PLAYORDER=
